<svg width="24" height="24" viewBox="0 0 24 24" fill="none" xmlns="http://www.w3.org/2000/svg">
<path d="M12.75 13.5C12.0083 13.5 11.2833 13.2801 10.6666 12.868C10.0499 12.456 9.56928 11.8703 9.28545 11.1851C9.00162 10.4998 8.92736 9.74584 9.07206 9.01841C9.21675 8.29098 9.5739 7.6228 10.0984 7.09835C10.6228 6.5739 11.291 6.21675 12.0184 6.07206C12.7458 5.92736 13.4998 6.00162 14.1851 6.28545C14.8703 6.56928 15.456 7.04993 15.868 7.66661C16.2801 8.2833 16.5 9.00832 16.5 9.75C16.4988 10.7442 16.1033 11.6973 15.4003 12.4003C14.6973 13.1033 13.7442 13.4988 12.75 13.5ZM12.75 7.5C12.305 7.5 11.87 7.63196 11.5 7.8792C11.13 8.12643 10.8416 8.47783 10.6713 8.88896C10.501 9.3001 10.4564 9.7525 10.5432 10.189C10.6301 10.6254 10.8443 11.0263 11.159 11.341C11.4737 11.6557 11.8746 11.87 12.311 11.9568C12.7475 12.0436 13.1999 11.999 13.611 11.8287C14.0222 11.6584 14.3736 11.37 14.6208 11C14.868 10.63 15 10.195 15 9.75C14.9994 9.15345 14.7622 8.5815 14.3403 8.15967C13.9185 7.73784 13.3466 7.5006 12.75 7.5Z" fill="white"/>
<path d="M12.25 23L5.92301 15.5382C5.83509 15.4262 5.74809 15.3135 5.66201 15.2C4.58124 13.7763 3.99739 12.0374 4.00001 10.25C4.00001 8.06196 4.8692 5.96354 6.41638 4.41637C7.96355 2.86919 10.062 2 12.25 2C14.438 2 16.5365 2.86919 18.0836 4.41637C19.6308 5.96354 20.5 8.06196 20.5 10.25C20.5026 12.0366 19.919 13.7747 18.8388 15.1978L18.838 15.2C18.838 15.2 18.613 15.4955 18.5793 15.5353L12.25 23ZM6.85901 14.2963C6.86051 14.2963 7.03451 14.5272 7.07426 14.5767L12.25 20.681L17.4325 14.5685C17.4655 14.5272 17.641 14.2948 17.6418 14.294C18.5246 13.1308 19.0017 11.7103 19 10.25C19 8.45979 18.2888 6.7429 17.023 5.47703C15.7571 4.21116 14.0402 3.5 12.25 3.5C10.4598 3.5 8.74291 4.21116 7.47704 5.47703C6.21117 6.7429 5.50001 8.45979 5.50001 10.25C5.49844 11.7112 5.97609 13.1326 6.85976 14.2963H6.85901Z" fill="white"/>
</svg>
