<svg width="48" height="48" viewBox="0 0 48 48" fill="none" xmlns="http://www.w3.org/2000/svg">
<path d="M28 36C19.1634 36 12 28.8366 12 20C12 11.1634 19.1634 4 28 4C36.8366 4 44 11.1634 44 20C44 28.8366 36.8366 36 28 36Z" fill="#363636" fill-opacity="0.4"/>
<path d="M17.4337 34.8975C18.2808 34.1069 18.2808 32.7642 17.4339 31.9735L16.6846 31.274C15.9162 30.5566 14.7236 30.5565 13.9552 31.2737L5.56675 39.1022C4.71951 39.8929 4.71951 41.2359 5.56675 42.0266L6.31668 42.7264C7.08511 43.4436 8.27752 43.4435 9.04591 42.7264L17.4337 34.8975Z" fill="#363636" fill-opacity="0.4"/>
<path d="M28 33C20.8203 33 15 27.1797 15 20C15 12.8203 20.8203 7 28 7C35.1797 7 41 12.8203 41 20C41 27.1797 35.1797 33 28 33Z" fill="#E2E2E2"/>
<path d="M21.0997 14.2C22.7997 12.2 25.2997 11 27.9997 11C30.6997 11 33.1997 12.2 34.8997 14.2C35.2997 14.6 35.1997 15.3 34.7997 15.6C34.3997 16 33.6997 15.9 33.3997 15.5C31.9997 13.9 30.0997 13 27.9997 13C25.8997 13 23.9997 13.9 22.5997 15.5C22.3997 15.7 22.0997 15.9 21.7997 15.9C21.5997 15.9 21.2997 15.8 21.1997 15.7C20.7997 15.3 20.7997 14.6 21.0997 14.2Z" fill="white"/>
</svg>
