<svg width="18" height="10" viewBox="0 0 18 10" fill="none" xmlns="http://www.w3.org/2000/svg">
<path d="M16.4973 0.988783L9.00024 8.29678L1.50324 0.988783C1.36929 0.857949 1.18948 0.784703 1.00224 0.784703C0.814996 0.784703 0.635183 0.857949 0.501236 0.988783C0.43638 1.05233 0.384855 1.12818 0.34968 1.21189C0.314505 1.2956 0.296387 1.38548 0.296387 1.47628C0.296387 1.56708 0.314505 1.65697 0.34968 1.74068C0.384855 1.82439 0.43638 1.90024 0.501236 1.96378L8.47674 9.73978C8.6168 9.8763 8.80466 9.95271 9.00024 9.95271C9.19583 9.95271 9.38368 9.8763 9.52374 9.73978L17.4993 1.96528C17.5646 1.90169 17.6165 1.82565 17.6519 1.74167C17.6874 1.65768 17.7056 1.56744 17.7056 1.47628C17.7056 1.38512 17.6874 1.29488 17.6519 1.2109C17.6165 1.12691 17.5646 1.05088 17.4993 0.987282C17.3653 0.856448 17.1855 0.783203 16.9983 0.783203C16.811 0.783203 16.6312 0.856448 16.4973 0.987282V0.988783Z" fill="#363636" fill-opacity="0.4"/>
</svg>
