<svg width="13" height="22" viewBox="0 0 13 22" fill="none" xmlns="http://www.w3.org/2000/svg">
<path d="M0.986545 0.37427C0.823003 0.541703 0.731445 0.766469 0.731445 1.00052C0.731445 1.23457 0.823003 1.45934 0.986545 1.62677L10.1234 10.9999L0.986545 20.3711C0.823003 20.5386 0.731445 20.7633 0.731445 20.9974C0.731445 21.2314 0.823003 21.4562 0.986545 21.6236C1.06604 21.7053 1.16108 21.7702 1.26606 21.8145C1.37105 21.8588 1.48384 21.8816 1.59779 21.8816C1.71175 21.8816 1.82454 21.8588 1.92953 21.8145C2.03451 21.7702 2.12955 21.7053 2.20904 21.6236L11.9253 11.6543C12.0959 11.4792 12.1915 11.2444 12.1915 10.9999C12.1915 10.7554 12.0959 10.5206 11.9253 10.3455L2.20904 0.376145C2.12955 0.294502 2.03451 0.22961 1.92953 0.185301C1.82454 0.140992 1.71175 0.118164 1.59779 0.118164C1.48384 0.118164 1.37105 0.140992 1.26606 0.185301C1.16108 0.22961 1.06604 0.294502 0.986545 0.376145V0.37427Z" fill="white"/>
</svg>
